<?xml version="1.0" encoding="UTF-8" standalone="no"?>
<svg
   xmlns:dc="http://purl.org/dc/elements/1.1/"
   xmlns:cc="http://creativecommons.org/ns#"
   xmlns:rdf="http://www.w3.org/1999/02/22-rdf-syntax-ns#"
   xmlns:svg="http://www.w3.org/2000/svg"
   xmlns="http://www.w3.org/2000/svg"
   id="svg2"
   viewBox="0 0 14 14"
   height="14"
   width="14"
   version="1.1">
  <metadata
     id="metadata8">
    <rdf:RDF>
      <cc:Work
         rdf:about="">
        <dc:format>image/svg+xml</dc:format>
        <dc:type
           rdf:resource="http://purl.org/dc/dcmitype/StillImage" />
        <dc:title></dc:title>
      </cc:Work>
    </rdf:RDF>
  </metadata>
  <defs
     id="defs6" />
  <rect
     style="fill:none;stroke:none;visibility:hidden"
     id="canvas"
     y="0"
     x="0"
     height="14"
     width="14" />
  <path
     style="fill:#000000;stroke-width:0.17455491"
     d="M 7,0 0,3.5 0,5.5 1.5,4.8496094 1.5,14 3,14 3,4.1992188 7,2.5 11,4.1992188 11,14 12.5,14 12.5,4.8496094 14,5.5 l 0,-2 z"
     id="path757" />
  <path
     style="fill:#000000;fill-opacity:1;stroke-width:2.25327134"
     d="M 6.8246706,12.191214 C 6.5064105,12.001638 6.2513508,11.758098 6.0893961,11.489146 l -0.076405,-0.126883 0.078854,-0.123271 c 0.1529519,-0.2391 0.335721,-0.715641 0.335721,-0.875334 l 0,-0.05258 0.2251993,0.01414 c 0.12386,0.0078 0.2286298,0.01703 0.2328191,0.02055 0.00421,0.0035 0.016238,0.182594 0.02677,0.397944 0.018151,0.371159 0.053051,0.70596 0.07598,0.728889 0.042641,0.04264 0.069423,-0.141311 0.1003034,-0.688932 0.013625,-0.241679 0.02618,-0.440557 0.027891,-0.441953 0.00169,-0.0014 0.1026858,-0.0091 0.2243842,-0.01722 l 0.2212689,-0.01468 0.027232,0.147831 c 0.038157,0.207081 0.1602072,0.513597 0.2889416,0.725638 l 0.109231,0.179919 -0.048271,0.08373 c -0.1526598,0.264807 -0.436508,0.549417 -0.7125696,0.714482 -0.095159,0.0569 -0.1878465,0.108743 -0.2059741,0.11521 -0.018126,0.0065 -0.1063731,-0.03197 -0.1961058,-0.08542 z M 5.3949383,11.324217 c -0.1810544,-0.0389 -0.3490809,-0.17144 -0.4345881,-0.342809 -0.036898,-0.07395 -0.097575,-0.253204 -0.085447,-0.252426 0.00206,1.25e-4 0.052255,0.01496 0.1115735,0.03295 0.1465545,0.04446 0.2525215,0.04113 0.3957219,-0.01246 0.1620775,-0.06064 0.2996845,-0.212756 0.3559448,-0.393475 0.024418,-0.07844 0.051618,-0.128738 0.066584,-0.123136 0.013914,0.0052 0.1251404,0.02157 0.2471693,0.03637 0.2577014,0.03123 0.2531272,0.02403 0.1753934,0.275933 -0.1685913,0.546321 -0.494736,0.85158 -0.8323522,0.779048 z m 2.9240145,-0.02778 c -0.125122,-0.03595 -0.3332801,-0.264797 -0.4367439,-0.480149 -0.080799,-0.168178 -0.158367,-0.40681 -0.158367,-0.487201 0,-0.02249 0.060693,-0.03871 0.2252013,-0.06018 0.1238601,-0.01617 0.2354436,-0.03326 0.2479599,-0.03799 0.01252,-0.0047 0.0342,0.03417 0.048191,0.08646 0.038059,0.142319 0.1560181,0.302146 0.2787902,0.377762 0.098272,0.06052 0.1251362,0.06656 0.296606,0.06656 0.1037008,0 0.2120939,-0.0085 0.2408764,-0.01888 0.050757,-0.01831 0.051853,-0.01635 0.036562,0.06515 -0.035662,0.190125 -0.1639825,0.355863 -0.3458764,0.446758 -0.14327,0.07159 -0.2825302,0.085 -0.4331999,0.04171 z M 6.515449,10.142935 C 5.9909345,10.091527 5.7024916,10.038902 5.5701605,9.9704706 5.500669,9.9345326 5.4847772,9.8719048 5.5346475,9.8305168 5.5892799,9.7851777 5.8077642,9.7215541 6.0476518,9.6811374 6.3877254,9.6238394 7.5770248,9.6231174 7.9352244,9.6799774 8.3545722,9.7465514 8.54118,9.8254583 8.492853,9.9157588 8.442969,10.008972 8.069825,10.095554 7.5480756,10.134979 c -0.2756651,0.02083 -0.855651,0.0253 -1.0326281,0.0079 z M 8.0064718,9.9601376 C 8.2505716,9.9300816 8.3457481,9.9006748 8.2935315,9.8714557 8.1552453,9.7940637 7.1708585,9.7440116 6.5099559,9.7807676 c -0.576739,0.032071 -0.8457971,0.068784 -0.8192337,0.1117599 0.0159,0.025726 0.2571124,0.065335 0.5403509,0.088736 0.3051331,0.025209 1.5161262,0.01081 1.7753987,-0.02113 z M 4.0594254,9.5666828 C 3.6123756,9.4122651 3.3029827,8.9121009 3.3376405,8.3998385 3.3600278,8.0689195 3.472814,7.8170416 3.7026009,7.5848001 4.0246379,7.2593193 4.4920085,7.1557697 4.9383812,7.3110036 c 0.487593,0.1695685 0.9289848,0.6949596 1.1789139,1.4032722 0.074656,0.2115819 0.1564743,0.5802989 0.1564743,0.7051635 0,0.078043 -0.00102,0.078951 -0.093376,0.080101 -0.051356,5.873e-4 -0.1724703,0.014284 -0.2691413,0.030333 -0.096673,0.016049 -0.1763317,0.027874 -0.1770215,0.026305 -7.338e-4,-0.0016 -0.028835,-0.074763 -0.062548,-0.1626319 C 5.521677,9.0025418 5.2223893,8.7639365 4.9351146,8.8063193 4.6273401,8.8517275 4.446981,9.0786743 4.4418675,9.4269718 L 4.4392299,9.6082285 4.3074036,9.6074942 C 4.2348976,9.6070629 4.1233153,9.5887277 4.0594425,9.5666641 Z M 4.2287005,8.5132286 4.293462,8.3849377 4.427299,8.4064916 c 0.07361,0.011857 0.1409226,0.014467 0.1495859,0.00581 0.00866,-0.00867 -0.031037,-0.059959 -0.088226,-0.1139938 L 4.3846813,8.2000657 4.45071,8.0692612 c 0.036316,-0.071942 0.056218,-0.1308031 0.044232,-0.1308031 -0.011986,0 -0.076424,0.026789 -0.1431878,0.059532 L 4.2303652,8.057525 4.1178016,7.9485572 4.0052379,7.8395893 4.0185741,7.9439351 c 0.00732,0.057391 0.019051,0.127121 0.026033,0.1549566 0.010978,0.04374 -0.00387,0.059283 -0.1094307,0.1145082 -0.067174,0.035143 -0.122135,0.070911 -0.122135,0.079484 0,0.015178 0.035322,0.024156 0.2015546,0.051235 l 0.080714,0.01315 0.01522,0.1421281 c 0.00837,0.078172 0.023815,0.1421297 0.034314,0.1421297 0.010503,0 0.048238,-0.057731 0.083854,-0.1282895 z M 9.5578462,9.4294784 C 9.5569658,9.1396415 9.4651763,8.9743282 9.2408973,8.8586705 9.106818,8.7895283 8.8937983,8.789457 8.7604025,8.8585267 8.5789765,8.9524399 8.3801054,9.2167939 8.3046987,9.4642767 8.2897728,9.5132516 8.2672993,9.5510609 8.2547526,9.5482896 8.2422059,9.5455272 8.1176151,9.5313409 7.9778907,9.5167803 7.6837085,9.4861176 7.7030142,9.5140179 7.7578016,9.1991773 7.7991397,8.9616497 7.9124822,8.6160453 8.0289783,8.3722891 8.2945812,7.8165444 8.6962737,7.4193651 9.1238246,7.2897433 9.7346064,7.1045727 10.387541,7.445726 10.604254,8.063257 c 0.05789,0.1649637 0.07953,0.5068011 0.04231,0.6682537 -0.111789,0.4848694 -0.493636,0.8473347 -0.9185556,0.8719326 L 9.5584031,9.6132543 9.5578159,9.4294891 Z M 9.8884944,8.5240535 c 0.0081,-0.064605 0.02187,-0.1291029 0.03066,-0.1433311 0.0088,-0.014228 0.07346,-0.035222 0.1436986,-0.046653 0.07024,-0.01144 0.131993,-0.025068 0.137227,-0.030302 0.0053,-0.00523 -0.04839,-0.042608 -0.119165,-0.083055 l -0.1286816,-0.073538 0.01603,-0.087883 c 0.0088,-0.048336 0.0166,-0.1171713 0.0173,-0.1529689 l 0.0012,-0.065088 -0.1105036,0.1088428 -0.110504,0.1088428 -0.120825,-0.063262 c -0.066432,-0.034791 -0.126474,-0.057584 -0.1334104,-0.050649 -0.00695,0.00692 0.013999,0.06886 0.046524,0.1376096 l 0.059133,0.1250012 -0.1063099,0.1086229 -0.1063109,0.1086243 0.1581889,-0.015244 0.1581856,-0.015246 0.0606,0.1235696 c 0.03333,0.067965 0.06772,0.1235712 0.07642,0.1235712 0.0087,0 0.02242,-0.052858 0.03049,-0.1174646 z M 6.4284874,9.3072581 C 6.381977,9.0167442 6.2609153,8.6621791 6.0196726,8.1099052 5.7708859,7.5403621 5.697569,7.3222683 5.6581124,7.03435 5.5965487,6.585117 5.7703252,6.0861774 6.1190612,5.7108951 6.1739419,5.651838 6.3374857,5.5090789 6.4824928,5.3936523 6.6274995,5.2782243 6.8029531,5.1298098 6.8723914,5.0638398 l 0.12625,-0.1199465 0.1154283,0.108837 c 0.063482,0.059862 0.2340722,0.203719 0.379079,0.3196847 C 7.910987,5.7065691 8.0985491,5.9279555 8.229866,6.2419804 8.4449462,6.7563296 8.3964267,7.178381 8.0276096,8.0012981 7.7421949,8.6381234 7.6414784,8.9239088 7.5818933,9.2660192 7.5631089,9.3738588 7.5453493,9.4628412 7.5424176,9.4637563 7.539477,9.4646376 7.4422999,9.4623306 7.3264418,9.4584989 L 7.1157913,9.4515483 7.1012574,8.3489415 C 7.0932376,7.7425071 7.0826513,7.2216158 7.077679,7.191406 7.0726888,7.161195 7.0625214,6.9733452 7.0550629,6.7739608 7.040235,6.3779944 7.0184209,6.0439582 7.0080574,6.0543189 c -0.017921,0.01792 -0.032754,0.1737349 -0.051789,0.5438762 -0.036732,0.7143676 -0.04429,0.9582029 -0.059427,1.9169518 l -0.014829,0.9392502 -0.1814844,0 c -0.099817,0 -0.1956892,0.00544 -0.2130433,0.01211 -0.024501,0.0094 -0.037691,-0.026207 -0.058998,-0.159288 z"
     id="path4283" />
</svg>
